# xmcd
#
# Track frame offsets: 
#        150
#        10550
#        21055
#        32359
#        51881
#        63535
#        77386
#        88763
#
# Disc length: 1356 seconds
#
# Revision: 0
# Processed by: cddbd v1.5.2PL0 Copyright (c) Steve Scherf et al.
# Submitted via: ExactAudioCopy v0.99pb4
#
DISCID=4e054a08
DTITLE=Marty Robbins - Reflections
DYEAR=1991
DGENRE=Classic Country
TTITLE0=Bouquet of Roses
TTITLE1=The Things That I Don't Know
TTITLE2=Begging To You
TTITLE3=El Paso
TTITLE4=Lovesick Blues
TTITLE5=The Hands You're Holding Now
TTITLE6=Are You Sincere?
TTITLE7=Devil Woman
EXTD=
EXTT0=
EXTT1=
EXTT2=
EXTT3=
EXTT4=
EXTT5=
EXTT6=
EXTT7=
PLAYORDER=
